# xmcd CD database file
#
# Track frame offsets:
#	150
#	15527
#	32225
#	56863
#	72620
#	76685
#	104323
#	121793
#	140622
#	144781
#	159525
#	184351
#
# Disc length: 2586 seconds
#
# Revision: 0
# Processed by: cddbd v1.5.2PL0 Copyright (c) Steve Scherf et al.
# Submitted via: CDex 1.70beta2
#
DISCID=a30a180c
DTITLE=Jazz - Muddie's Street
DYEAR=2000
DGENRE=Jazz
TTITLE0=Got my Mojo working
TTITLE1=A man need a woman
TTITLE2=The thrill is gone
TTITLE3=I just want to make love to you
TTITLE4=Got my Mojo working
TTITLE5=Whisky drinking woman
TTITLE6=I got a woman
TTITLE7=Boom boom
TTITLE8=Candy man
TTITLE9=Hound dog blues
TTITLE10=Georgia
TTITLE11=Jazz is the teacher
EXTD=YEAR: 2000
EXTT0=
EXTT1=
EXTT2=
EXTT3=
EXTT4=
EXTT5=
EXTT6=
EXTT7=
EXTT8=
EXTT9=
EXTT10=
EXTT11=
PLAYORDER=
